<svg id="Layer_1" data-name="Layer 1" xmlns="http://www.w3.org/2000/svg" viewBox="0 0 677.21 86.93"><defs><style>.cls-1{isolation:isolate;}.cls-2{fill:#dbedf3;}</style></defs><title>MeetBergen</title><g id="Meet_Bergen" data-name="Meet Bergen" class="cls-1"><g class="cls-1"><path class="cls-2" d="M91.55,49.34c-2.27-.72-3.3,4.12-3.81,5.25H86.09c0,1.24,1.44,1.44,2.37,1.75a2.65,2.65,0,0,1-2.89,1.34l-2.88,9.07,1.23-.62,2.17-6.59.62,1.64-1.45,5.15c-.51,1.86-1.44,3.3-2.47,3.3-1.44,0-1.13,1.85-1.54,3.19l-.72-.93-.62.62c.51,1,1.54,2.37,1.54,3.61,0,2.37-2.57,6.8-4.32,10.81l-1.75-1.54a2.15,2.15,0,0,1-.83.41,3.28,3.28,0,0,1-1,.1c-3.91,0-8.44-6.59-8.44-10.3,0-4.22,8.44-19.36,12.15-27.5l-.31-.82c-3,1.85-10.3,4.22-10.61,7.41L48.08,70.25c-1.75-2.37-3-.62-5.15-.62-2.68,0-4.22-5-5.25-8.45,1.54-5,4.12-11.33,6.59-17.09l-1-2.06c-4.12,3.39-7.93,8.65-10.81,13.18C28.1,62.21,22.23,73,17.8,81.06c-1-.41-.21-2.16.52-3.6-1.14-.31-2,1.44-2.68,3.4a8.4,8.4,0,0,0,.1,5.76,2.48,2.48,0,0,1-1.65.62C9.87,87.24,4,79.72,4,77.46,4,75,12.65,61.29,17.39,53.87,22.74,45.32,28,37.39,35,32.14c2-3,6.18-9,9.89-9,5.77,0,7.83,7.21,10.2,13a17.5,17.5,0,0,0,.82,9c3.3-2.27,7.42-5.77,10.71-7.63.72-.41,1.65.21,2.16,1a2.38,2.38,0,0,0,.93-2.88c5.46-3.4,12.36-6.9,14.63-6.9,2,0,4.43,1.75,6.59,3.4,1.75,4.12,3.71,7.52,3.71,10.92C94.64,46,93.4,50,91.55,49.34ZM19.35,74l-1.14,2,.62.62L20,74.37Zm.51-1.14.62.52c.51-1,1-1.45.31-2ZM80,67.26c0,.51.1,1,.1,1.24.83-.62,1.34-2.58.42-3A3.49,3.49,0,0,0,80,67.26Zm5.15-11.43h-.1c-1.44,2.06-3.4,4.74-3.4,7.93a10.43,10.43,0,0,0,.2,1.75H82Zm1.65-5.77-1.13,3.19c1.13-.82,2.06-1.85,1.75-2.37Zm1.34-.72,1.23-3.19c-1.44,0-1.54,1.33-2.37,3.19Zm1.54,5.25H88.56a5.43,5.43,0,0,1,2-2.06Z" transform="translate(-4 -20.4)"/><path class="cls-2" d="M152.21,37.39c-9.37,4.22-19,4.53-28,7.11-1.13,1.85-2.58,4.22-4.33,7,4.12-.41,12.67-3.91,15.66-3.91s3.91,1,6.08,4.74A2.07,2.07,0,0,0,142.74,55L142,57.27c-6.29,1-21.63,3.5-26.78,5.77-2.68,1.13-5,12.46-5.15,14.83,3.19,2.37,8,1.34,11,.62l.62,1c.72,0,1.65-.62,1.65-1.24,1.54-.21,2.06,2.27,3.5,1.85,6.69-1.85,14.62-4.53,19.77-6.17.31-.11.72-.21.83.1.2.51-1.34,1.23-2.17,1.65l-7,2.57c.62.41,1.75,1.13,2.47,1.55.31.1.1.3-.2.41-5.15,1.75-11.54,3.5-17.31,4.94a9.15,9.15,0,0,0,5.77.21c4.12-1.14,9.78-3.09,14.83-4.84.31-.11,1-.42.52.61a5.07,5.07,0,0,1-2.89,2.27c-6.69,2.57-15.34,5.66-21.63,5.66-12.05,0-20.6-5.45-20.18-20.49.2-7.62,6.48-17,14-32.75A9.62,9.62,0,0,1,115.14,28c5.15.62,8.13-7.31,11.74-7.31,2,0,7.41,1.54,8.75,1.95a14.38,14.38,0,0,1-1.85,7.42,58.66,58.66,0,0,0,9,.92l.93,2a15.58,15.58,0,0,1,2.57-.62c1.13,0,3.61,1,5,1.24.2,0,.41.21.2.41-4.12,3.71-7,1.44-6.28,4.53,3.09-1.23,5.67-2,8.55-3.29.41-.21,1-.93,1.13-.31C155.1,36,153.24,36.57,152.21,37.39Zm-43.56,36c-.42,1.85-.52,3.19.31,3.81l.51-2.78Zm1.64-5.87-1.13,3.81.72.92,1.44-4.84Zm.21-.72h.1a12.43,12.43,0,0,0,1.86-2.68c-1.34-.11-1.75.51-2,1.54Zm5.87-14.94,1.34-.21,1-2.36C118,49.24,116.68,50.68,116.37,51.81Zm4.74-6.9-1.75,2.88,1.34-.31,1.75-2.88Zm13.39,30.9c-2.89,2.16-6.49,3.6-7.73,1.65a84.64,84.64,0,0,0,13.29-4.12c.41-.21.52.1.31.41C139.13,75.19,136.46,75.91,134.5,75.81Zm9.68-41.61.31,1.23,1.85-.82C146.24,34.09,144.8,34,144.18,34.2Z" transform="translate(-4 -20.4)"/><path class="cls-2" d="M207.52,37.39c-9.37,4.22-19,4.53-28,7.11-1.13,1.85-2.58,4.22-4.33,7,4.12-.41,12.67-3.91,15.66-3.91s3.91,1,6.08,4.74A2.07,2.07,0,0,0,198.05,55l-.72,2.27c-6.29,1-21.63,3.5-26.78,5.77-2.68,1.13-5.05,12.46-5.15,14.83,3.19,2.37,8,1.34,11,.62l.62,1c.72,0,1.65-.62,1.65-1.24,1.54-.21,2.05,2.27,3.5,1.85C188.88,78.28,196.81,75.6,202,74c.31-.11.72-.21.83.1.2.51-1.34,1.23-2.17,1.65l-7,2.57c.62.41,1.75,1.13,2.47,1.55.31.1.1.3-.2.41-5.15,1.75-11.54,3.5-17.31,4.94a9.15,9.15,0,0,0,5.77.21c4.12-1.14,9.78-3.09,14.83-4.84.31-.11,1-.42.52.61a5.07,5.07,0,0,1-2.89,2.27c-6.69,2.57-15.34,5.66-21.63,5.66-12.05,0-20.6-5.45-20.18-20.49.2-7.62,6.48-17,14-32.75A9.65,9.65,0,0,1,170.44,28c5.15.62,8.14-7.31,11.75-7.31,1.95,0,7.41,1.54,8.75,1.95a14.38,14.38,0,0,1-1.85,7.42,58.66,58.66,0,0,0,9,.92l.93,2a15.58,15.58,0,0,1,2.57-.62c1.13,0,3.6,1,5,1.24.2,0,.41.21.2.41-4.12,3.71-7,1.44-6.28,4.53,3.09-1.23,5.67-2,8.55-3.29.41-.21,1-.93,1.13-.31C210.41,36,208.55,36.57,207.52,37.39ZM164,73.34c-.42,1.85-.52,3.19.31,3.81l.51-2.78Zm1.64-5.87-1.13,3.81.72.92,1.44-4.84Zm.21-.72h.1a12.8,12.8,0,0,0,1.86-2.68c-1.34-.11-1.75.51-2,1.54Zm5.87-14.94L173,51.6l1-2.36C173.33,49.24,172,50.68,171.68,51.81Zm4.74-6.9-1.75,2.88,1.34-.31,1.75-2.88Zm13.39,30.9c-2.89,2.16-6.49,3.6-7.73,1.65a84.64,84.64,0,0,0,13.29-4.12c.41-.21.52.1.31.41C194.44,75.19,191.77,75.91,189.81,75.81Zm9.68-41.61.31,1.23,1.85-.82C201.55,34.09,200.11,34,199.49,34.2Z" transform="translate(-4 -20.4)"/><path class="cls-2" d="M253.15,29.25c6.8-1.44,14.42-3.09,19.16-3.7,4.43,1.13,8,3,9.37,6.69-1.75,1.55-.82,4.22.1,5.77a8.14,8.14,0,0,1-1.64.72l-.21-.62a3.42,3.42,0,0,0-1.44-.41.7.7,0,0,0-.72.72,2,2,0,0,0,.2.83c-6.18,1.23-15.24.41-23.79,4.11h-1.44V42.23a2.49,2.49,0,0,0-2.27,1.24c-3.5.41-4.63,1.75-6.79,8.24a8,8,0,0,1-2.17,2.67l.93.52c-.51,2.16-2.06,6.28-3.09,6.18s-.1-2.16-.72-2.06c-1.13.21-1.24,2.47-1.75,4.12a7.76,7.76,0,0,1,.62,3c-.52,1.34-1,3.6-1.75,3.6-1,0-.42-2-.83-2.78-.93,2-1.65,3.81-2.37,5.56l.83.52c.51-.93,1-1.24,2-1a155,155,0,0,0-4.84,15.34,22.3,22.3,0,0,1-6.69-.51l.41-1.13c-2.68-.93-2.47-4.43-2.88-8.45a3.91,3.91,0,0,1-.83-2.16c0-2.58,5.87-17.82,11-29.56h-8c-4.53,0-4.84,1.44-8.14.62-1.54-2.37-3.4-6.9-3.4-10a4.6,4.6,0,0,1,1.45-3.39c4,.41,13.59.82,19.87-.42,10.41-2.16,5.87-11.94,15.45-11.94ZM240.17,56l-1,1.86.62.72.83-1.86Z" transform="translate(-4 -20.4)"/><path class="cls-2" d="M312.69,38.83c1.95-5.46,5.45-13.39,8.34-17.71h1.85c4.12,0,5.56,3.4,6.18,4.84h-1.44c0,1.23.51,2.88,1.24,2.88,2.88,0,5.25-2.57,8.54-3.71A29.28,29.28,0,0,1,343.48,24c2.27,0,4.84,6.08,5.77,8.86-1,.1-1.85.82-1,1.85-1.55,2.47-3.09,6.8-5.05,6.59-1.34-.1-4.74,3.71-5.87,3.61-2-.21-3.29,2-5.35,3.6l-.73-.51c-1.13.82-3.5,2.37-4.42,3.6l.41.31c3.29-.2,8-.72,11.74-.72,5.05,0,9.06,2.89,12.26,5.26,1.54,2.47,3.5,8,4.53,11.32-.72.42-1.34-.1-2.06.21C352.24,70.14,343.27,77,342.76,77a15.45,15.45,0,0,0-7.21,1.76l.41,1.54c-2.37,2.16-6.18,3-7.62,1.55a7.84,7.84,0,0,0-1.13,2.47c-11,6-19.06,7.93-17.92,10.19a3.22,3.22,0,0,1-2.17.83c-2.26,0-4-3.09-7-3.5.21-1.14.21-2.37-1-1.75a11,11,0,0,0-.52-5.15c1.76-.83,3.71-1.65,5.46-2.58-1.85-.51-3.09-2.37-4.53-3l.93-1.54a5.55,5.55,0,0,1-1.75-2.47l10.5-28.12c-1.64-.83-1.95-2.37-1.75-4.22Zm-4.13,38.73.73.41.82-1.13C309.49,76.53,309.08,76.94,308.56,77.56Zm7.73-16.69c-1.13,0-1.34.72-1.85.72l1,.83c-.52.93-1.24,2-2,2,1,1.44.31,3.09-.52,5.15-.82.72-1.95,1.23-2.36,2.16,1.33,0,.92.62.51,1-1,.82-1.65,1.44-.51,3.4L312.38,74l-.11,3.19h-.72a5,5,0,0,0-.41,1.85c4.53-2.06,8.24-3.4,9.27-2.37.52-1.34,2.37-2.26,4.63-3.5,1,1.85,1.45-.21,2.48-.21.82,0,2,.31,2.37-1.44,4.42-2.06,9.37-4.53,13.28-9.68-9.16-3.5-13.08.52-21.52.52C319.59,62.32,317.53,60.87,316.29,60.87Zm-4.84,6.18a3,3,0,0,1-.72,1.86l.41.72a3.9,3.9,0,0,0,1.44-2.58Zm1.65,5.26a.55.55,0,0,1-.21-.83,5.73,5.73,0,0,1,1.85-2.57Zm1.34,15,.51.52a1.16,1.16,0,0,0,.52.1,1.5,1.5,0,0,0,.82-.51ZM315,68c-.51-.21.41-3.09,1.13-4.43l.62.52ZM317,85.9a1.64,1.64,0,0,0,1.75,1.34c1.14,0,1.34-1.34.83-1.34A4.35,4.35,0,0,1,317,85.9Zm17.92-6.38a5.31,5.31,0,0,0-3,.82,2.88,2.88,0,0,0,1.54.41C334,80.75,334.52,80.34,334.93,79.52ZM333.59,58.4l-.1.83c1,.2,2.06.1,2.16-.52ZM337,80c0-1,.72-1.65,2-1.65a1.79,1.79,0,0,1,1,.31Zm5.15-4.63-1.65.51c-.1.72,1.45.52,1.86.41ZM350,69.83l2-1.64c-.52-.72-2,.41-2.68.82Z" transform="translate(-4 -20.4)"/><path class="cls-2" d="M414.14,37.39c-9.37,4.22-18.95,4.53-28,7.11-1.13,1.85-2.57,4.22-4.32,7,4.12-.41,12.67-3.91,15.65-3.91s3.92,1,6.08,4.74A2.08,2.08,0,0,0,404.66,55l-.72,2.27c-6.28,1-21.63,3.5-26.78,5.77-2.68,1.13-5,12.46-5.15,14.83,3.2,2.37,8,1.34,11,.62l.62,1c.72,0,1.65-.62,1.65-1.24,1.54-.21,2.06,2.27,3.5,1.85,6.7-1.85,14.63-4.53,19.78-6.17.31-.11.72-.21.82.1.21.51-1.34,1.23-2.16,1.65l-7,2.57c.62.41,1.75,1.13,2.48,1.55.3.1.1.3-.21.41-5.15,1.75-11.54,3.5-17.3,4.94a9.12,9.12,0,0,0,5.76.21c4.12-1.14,9.79-3.09,14.84-4.84.3-.11,1-.42.51.61a5,5,0,0,1-2.88,2.27c-6.7,2.57-15.35,5.66-21.63,5.66-12.05,0-20.6-5.45-20.19-20.49.21-7.62,6.49-17,14-32.75A9.61,9.61,0,0,1,377.06,28c5.15.62,8.14-7.31,11.74-7.31,2,0,7.42,1.54,8.76,1.95a14.4,14.4,0,0,1-1.86,7.42,58.79,58.79,0,0,0,9,.92l.93,2a15.58,15.58,0,0,1,2.57-.62c1.14,0,3.61,1,5,1.24.21,0,.41.21.21.41-4.12,3.71-7,1.44-6.29,4.53,3.09-1.23,5.67-2,8.55-3.29.42-.21,1-.93,1.14-.31C417,36,415.17,36.57,414.14,37.39Zm-43.57,36c-.41,1.85-.51,3.19.31,3.81l.51-2.78Zm1.65-5.87-1.13,3.81.72.92,1.44-4.84Zm.2-.72h.11a12.39,12.39,0,0,0,1.85-2.68c-1.34-.11-1.75.51-2,1.54Zm5.88-14.94,1.33-.21,1-2.36C379.94,49.24,378.6,50.68,378.3,51.81Zm4.73-6.9-1.75,2.88,1.34-.31,1.75-2.88Zm13.39,30.9c-2.88,2.16-6.49,3.6-7.72,1.65A84.51,84.51,0,0,0,402,73.34c.42-.21.52.1.31.41C401.06,75.19,398.38,75.91,396.42,75.81ZM406.1,34.2l.31,1.23,1.86-.82C408.16,34.09,406.72,34,406.1,34.2Z" transform="translate(-4 -20.4)"/><path class="cls-2" d="M462.34,48c-4.43,2.78-2.78,4.12-8,7.21-1.55-2.16-4.53-.41-7.62,2.47,9.78,9,20.6,23.59,30.59,23.59a48.62,48.62,0,0,0,12.25-2.06,8.68,8.68,0,0,1,3.61,2.57c-2,.52-3.81,1-5.77,1.75l.21.21c1.34,0,3.4.21,2.78.62a40,40,0,0,1-8.76,4.32c-.82.31.41.83.93.72,4.22-1.44,8.34-4.42,11.53-6.59a5.79,5.79,0,0,1,1,1.34c-5.46,5-15.25,10.2-23,10.2-3.92-1.34-8.35-3.19-11-5.87-5.05-5-18.85-24.62-25-27.81a88.22,88.22,0,0,0-8.35,16c-.61,1.34,1.34,4,.83,6-.62,2.26-3.4,3.91-5.67,6.18A6.54,6.54,0,0,1,417.44,85l-1.55-4.23c2.47-1.65-.93-.72-.93-2.68,0-5.35,16.89-42.43,27-57.57,8.44,0,5.66,7.21,7.21,10.4,3.19-1.34,7.31-3,10.92-3a20.71,20.71,0,0,1,5.87.72l-.72,1.64c1.44.42,3.09.42,3.09-.92l1.95.82a3.25,3.25,0,0,1-.82,1.44c.82.62,1.75.62,2-.51,2.06,2,2.88,3.4,2.88,5.77a5.37,5.37,0,0,1-1.34,3.6c-2.78,2.47-5.66,5.36-9.47,8.65ZM429.28,68.7l-3,5.46.52,1.24,3-5.87Zm21-11.43-.62-.93c1.14-.82,2.89-1.44,3.4-.41ZM460.8,29.56l3.29.52.52-.72A5.9,5.9,0,0,0,460.8,29.56Zm14.83,60.67c-1.44-.41-2.47.62-.1,1.34A35.33,35.33,0,0,0,481.29,90v-.1c-.51,0-.72-.52-1-.72Z" transform="translate(-4 -20.4)"/><path class="cls-2" d="M481.91,56.45c1.86-1.76,7.73-17.31,20.7-23.9,1.14-.51.52-1.55,1.75-2.37,6.08-3.81,9.58-5.25,18.85-5.25,6.6,1.75,5.26,6.18,9.69,8.86,0,1.44-.93,2.36-2,3.39A4.41,4.41,0,0,1,533,38.94a1.52,1.52,0,0,1-.93,1.13c-.93-.93-3.09-2.58-5.35-2.58-11.33,0-36,18.44-34.2,33.07,7.31,1.23,18.44-.93,21-2.17a10.12,10.12,0,0,0,3.61-3.6A84.34,84.34,0,0,1,527,52.33a7.59,7.59,0,0,0,1.45,1c-.83.92-2,2.88-1.75,3.6l2.57-3.09c2.16,1,4.33,1.75,4.74,5.87,2.57,0-.52,4.84.41,6A128.21,128.21,0,0,1,523,76.32c-.93,2.78-2.17,6.39-3.71,10.1l.41.72A81.47,81.47,0,0,0,523.52,78l1.13-.51c-2.67,6.59-5.25,14.93-8.75,21.11-.93,1.65.41,2.37-.51,4.22s-1.76,4.54-3.82,4.54h-1.75V106c-4.42.92-6.69-1.65-7.52-4.53l2.58-4.54c-1.65.41-2.37,1.75-2.88,3.3h-1.76c2.68-5.67,4.64-10.2,6.6-14.52,1.64-3.61,2.78-1,2.78-6.7l-1.86.62c-1.44-1.75-4.94-.62-7.41,1.34-8.76.1-13.29-1.65-17.1-9.07H482c-1.95-5.14-.82-9.57.72-14.11Zm9.58,9.78a4.23,4.23,0,0,0-1.24,2.57,1.43,1.43,0,0,0,1,1.34Zm37.59-10.4L527,58.61a8.34,8.34,0,0,0,3.61-2.06C530.11,55.52,529.6,55.11,529.08,55.83Z" transform="translate(-4 -20.4)"/><path class="cls-2" d="M594.18,37.39c-9.37,4.22-18.95,4.53-28,7.11-1.13,1.85-2.57,4.22-4.32,7,4.12-.41,12.67-3.91,15.65-3.91s3.92,1,6.08,4.74A2.08,2.08,0,0,0,584.7,55L584,57.27c-6.28,1-21.63,3.5-26.78,5.77-2.67,1.13-5,12.46-5.15,14.83,3.2,2.37,8,1.34,11,.62l.62,1c.72,0,1.65-.62,1.65-1.24,1.55-.21,2.06,2.27,3.5,1.85,6.7-1.85,14.63-4.53,19.78-6.17.31-.11.72-.21.82.1.21.51-1.34,1.23-2.16,1.65l-7,2.57c.62.41,1.76,1.13,2.48,1.55.31.1.1.3-.21.41-5.15,1.75-11.53,3.5-17.3,4.94a9.14,9.14,0,0,0,5.77.21c4.11-1.14,9.78-3.09,14.83-4.84.31-.11,1-.42.51.61a5,5,0,0,1-2.88,2.27c-6.7,2.57-15.35,5.66-21.63,5.66-12.05,0-20.6-5.45-20.19-20.49.21-7.62,6.49-17,14-32.75A9.61,9.61,0,0,1,557.1,28c5.15.62,8.14-7.31,11.74-7.31,2,0,7.42,1.54,8.76,1.95a14.3,14.3,0,0,1-1.86,7.42,58.79,58.79,0,0,0,9,.92l.93,2a15.76,15.76,0,0,1,2.58-.62c1.13,0,3.6,1,5,1.24.21,0,.41.21.21.41-4.12,3.71-7,1.44-6.28,4.53,3.09-1.23,5.66-2,8.54-3.29.42-.21,1-.93,1.14-.31C597.06,36,595.21,36.57,594.18,37.39Zm-43.57,36c-.41,1.85-.51,3.19.31,3.81l.52-2.78Zm1.65-5.87-1.13,3.81.72.92,1.44-4.84Zm.21-.72h.1a12.39,12.39,0,0,0,1.85-2.68c-1.34-.11-1.75.51-1.95,1.54Zm5.87-14.94,1.34-.21,1-2.36C560,49.24,558.65,50.68,558.34,51.81Zm4.73-6.9-1.75,2.88,1.34-.31,1.75-2.88Zm13.39,30.9c-2.88,2.16-6.48,3.6-7.72,1.65A85,85,0,0,0,582,73.34c.41-.21.51.1.3.41C581.1,75.19,578.42,75.91,576.46,75.81Zm9.69-41.61.3,1.23,1.86-.82C588.21,34.09,586.76,34,586.15,34.2Z" transform="translate(-4 -20.4)"/><path class="cls-2" d="M663.19,27.61a11.78,11.78,0,0,1,5.35-1.34c3.71-.11,6.6.41,8.35,1.65l-2.06,1.44.2.41a9.54,9.54,0,0,0,3.3-1l2.88,3.09c-5.35,2.47-14.93,9.58-20.18,16.79-.62.82-1-.41-1.65,0-.21,3.71-2.37,5.66-4.84,9.58-.52.92-.31,2.26-.93,3.7,0,.62-1.55,1.24-1.85,2.17-2.58,7.93-6.08,16.17-9.38,24.61l-4.63-2.16L637.13,88c-6.59-1.75-7.21-4.32-8.14-11.22-.31-2.68.52-7.32-.2-9.58-2.47-7.21-.11-10.3-.72-15.56l-.52-4c-3.19,1-6.8,4.12-9.47,9l.3,1.65c-5.15,9.68-9.78,23.07-14.41,29.25h-2.89c-3,0-4.63-6.9-5.87-7.52l-.62-4.53c-.51-3.2.41-4.33,1.14-6.29,7.31-17.71,19-28.42,27.19-36.77,3.09,1.14,11.53,6.39,13,10.2,1.24,3.09,2.48,9.58,3.51,13.8,7-12.15,17.3-27.29,19.57-28.12l2.16-.3c-6.39,6.28-10.92,13.69-13.39,17.3-.93,1.54-1.34,2.16-1.13,2.26l.61.42C650.21,43.26,657.11,33.48,663.19,27.61ZM622.4,34.82l-2.26,2.36c1.23,1,2.36-1,3.09-1.75Zm30.69,32.75-.92-.62c.1-1.44.2-3.4,1.44-2.88Zm8.14-23.9c-.82,1.24-2.47,3.4-1.44,3.92l2.16-3.3C662.16,44,661.44,43.36,661.23,43.67Zm-.51-10.91,1.75-2.27-.83-.41a8.32,8.32,0,0,0-1.75,2.16C660,32.45,660.3,32.86,660.72,32.76Zm3.19,7.31-2.06,2.68c.62-.11.82.1.93.51l1.85-2.68C664.84,40.38,664.42,39.45,663.91,40.07Zm7.83-8.55.2.93c1-.72,2-.83,1.75-2.37Z" transform="translate(-4 -20.4)"/></g></g></svg>