<svg id="Layer_1" data-name="Layer 1" xmlns="http://www.w3.org/2000/svg" viewBox="0 0 250.41 41.5"><defs><style>.cls-1{isolation:isolate;}.cls-2{fill:#1b262c;}</style></defs><title>LogoDark</title><g class="cls-1"><path class="cls-2" d="M1,36.5l-1,.2c0-.2.7-.7,1.2-1.1.1-.1.3-.1.2.1Zm24.5,6.4c.7.4-.3,2-.8,3.1-.8,1.5-1.6,4.4-2.4,4.4-1.4-.8-4.6-2.9-4.6-5.2,0-3.2,2.3-8,3.9-10.9l-.3-.5c-1.3,0-5.8.6-6.3.6a1,1,0,0,0-.7-.4c-.8,0-1.3.6-1.6,1.4A92.67,92.67,0,0,0,9.5,46.5c-1.1,0-1.4-.6-2-1.2a.37.37,0,0,1-.3.1H6.9a1.42,1.42,0,0,1-.6-.2l.3-.6c-3.2-2.1-1.4-4-.8-8.2a20.28,20.28,0,0,0-4.3-.1c.6-1.1,1.7-1.3,2.6-1.7l-.8-.5,3.1-1.3a11.78,11.78,0,0,1,1.1-1.9c1-1.7,1.3-4.2,2.2-6,2.5-4.7,5.8-9.9,7.5-14,.2-.2.1-.4.7-.4,2.8,0,2.6,1.6,4.1,3.1a13.43,13.43,0,0,1-.4,5.8h-.4c-.5,1.7-2.4,4.3-3.6,6.6A2.85,2.85,0,0,0,16,28.5l1.1-.3c1.5-1.7,3.6-2,5.7-2a8.24,8.24,0,0,1,2.5.6c3.3-4.1,5.4-8.8,7.8-13.5a1.31,1.31,0,0,1,1.2-.6c1.9,0,2.5,2.7,2.5,4.7a4.51,4.51,0,0,1-1,3.3,4.62,4.62,0,0,1-1.9,3.6c.4,1-1.2,3-2,4.4-.7-.2-1.6.5-2,1.2s-1,1.9-1.5,2.9c-.1.2.3.5.6-.1l.6-1.3c.3-.5.7-1,1.2-.9-1.7,3-2.5,6.1-4.6,9.1l-.2-.2c-.2-.1-.7.2-.9.5A15,15,0,0,1,24,41.6c-.5.7,0,2,.1,2.5-.4.6-1.1,1.2-1.1,1.9C23.4,46.9,24.3,45.3,25.5,42.9ZM11.4,36l.5.2.6-1.6C12,34.6,11.7,35.4,11.4,36Zm7.1,1.7.6.2a2.53,2.53,0,0,1-1.2,1.9Zm4.1,6.4L22,45.2l.3.4.9-1.8C23.1,43.8,22.7,43.8,22.6,44.1ZM25.1,42c-.1.2-.3.2-.3.1l-.1-.6.8-1.2c.1-.2.3-.3.4-.2l.2.2Zm3-7.8L26,38.4c.6-.1,1.1-1,1.4-1.6l1.4-2.9A.67.67,0,0,0,28.1,34.2Z" transform="translate(0 -8.9)"/><path class="cls-2" d="M67.1,33.8a.74.74,0,0,1-.7,1.1l-.4-.7c-.4.1-.7.3-.4.9-.6,0-1.5.5-1.5,1.1,0,.8-.9.5-1.5.7A19.32,19.32,0,0,0,60.9,39l-.6-.5c-1.4.8-.6,1.4-2.1,2.1a12.66,12.66,0,0,1-2.8.6c-.2.2.5.4.4.6l-1,.3-1.5-.9c-.8.5-.2,1.7-1.3,2.1-1.3.4-2.3.8-3.8,1.3a1.9,1.9,0,0,0-2.7,0A52.45,52.45,0,0,1,40,40.5c-1.3-1-1.7-3.6-1.7-6.1,0-12.9,16.1-21.2,20-21.2,1.5,0,2.3,1,3.9,2.2,0,2.4,2.6,4.4,4.8,5.9s2.8,4,2.8,6.9A7.42,7.42,0,0,1,67.1,33.8ZM61.4,22.9c-.2-.5-.3-.8-.5-.6a.86.86,0,0,1-.6.3.74.74,0,0,1-.6-.4c-2.8,0-7.7,3.2-9.9,6.7-2.5,1.2-4.3,4.2-5.5,7.9a15.11,15.11,0,0,0,3.8-.6l9.5-4a11,11,0,0,0,4.3-2.8l2.4-3.1ZM48.2,28.8c-.8-.5-1.7.3-1.9.8a.58.58,0,0,0,.6.6Zm.2,14.8a1.33,1.33,0,0,0-1-.6c-.2.1-.4.1-.6.3Zm7-3.7c0,.2-.2.5-.1.6s.6,0,.9-.1C56.2,40,55.9,39.9,55.4,39.9Zm2.8-1.6c-1,.5-1.3.7-1.3,1.3l1.5-.8ZM59.7,37l-.8.9.2.6,1.1-.6C60,37.7,59.9,37.2,59.7,37Z" transform="translate(0 -8.9)"/><path class="cls-2" d="M101.2,34.5a4.16,4.16,0,0,1-2.5.9c-.6,0-.8-.1-.9-.3-1,1,.6,1.7,4.2.3.3-.1.7.1.5.2a15.87,15.87,0,0,1-4,1.6,8.76,8.76,0,0,0-3.2.7c-3.3,1.2-8.6,3.2-12.5,4.7-.7.3-1.8,1.4-2.5,1.4a22.75,22.75,0,0,1-2.6.2,1.15,1.15,0,0,1-.9-.6H75.6c-.8-.8-1.7-2.4-2.4-2.4h-.6c.9-9.3,10.4-23.6,15.3-29.8v-.8c3,0,4.5,2.4,4.5,4.9a58.83,58.83,0,0,1-3.7,8.4c-.6,1.1-2.3,2.7-3.2,4-.5.7-.8,2.1-1.2,2.8-.6,1.1-2.4,2-1.7,3.5,3.6-1.1,4.3-1.2,4.7-1.3a6.45,6.45,0,0,1,2-.3,2.51,2.51,0,0,1,2.1,1A11.2,11.2,0,0,1,94,32.5c.7,0,.8.3,1.5.3a47.8,47.8,0,0,0,5.2-1.4,1.63,1.63,0,0,0,.6.3v.1a29.22,29.22,0,0,0-5.2,1.9l.5.3a68.19,68.19,0,0,1,6.8-2.5,3.87,3.87,0,0,1,1.4.8c.8-.3,2.2-1.1,2.2-.7C107.3,32.2,103.9,33.8,101.2,34.5ZM81.9,30.8c-.4,1-1,1.9-.3,2.2l1-2Zm13.9,5.6a60.34,60.34,0,0,0-12.3,4.5l.1.2,13.1-4.3ZM85,26.8c-.5,0-.7.6-.7,1H85Zm6.7,7.6,1.2-.6c-.3-.2-.8-.2-1.5.2Zm10.2-3.1c-.2.1-.6-.2-.4-.3l1.1-.3c.6-.2.5.2.3.3Zm1.4,3.9c-.4.2-.6.1-.7-.2h0c3.1-1.4,3.5-1.6,3.9-1.3Zm2-3.8a3.51,3.51,0,0,0-.8-.5c.2-.2,2.1-.8,2.1-.5S105.7,31.2,105.3,31.4Z" transform="translate(0 -8.9)"/><path class="cls-2" d="M123.9,19.9h-.6c-1.4,2-2.3,5.7-4.7,7l.2.6-2.1,1.2c-2.1,3-3,6.6-4.1,9.6-.2.4-.8,1.3-.2,1.5.2.1.5-1.1.6-1.2,1.2-2.8,2.1-6.9,4-9.1.7-.3.2.4.1.5-1.9,3.1-2.8,6.7-4.3,10.4a11.69,11.69,0,0,0-1.2,5.8A10.34,10.34,0,0,1,109,45V43.3a1.78,1.78,0,0,0-.6,1.3,8.34,8.34,0,0,1-2.9-4c0-9.5,9.9-22.6,13.7-29.6a2.18,2.18,0,0,1,1.6-.7,4.71,4.71,0,0,1,1.6.4V12a3.06,3.06,0,0,1,1.9,2.8A43.79,43.79,0,0,1,123.9,19.9ZM111.5,41.1l-.6,1.4c-.1.2.1.7.4.2l.7-1.9C111.3,40.1,111.5,40.9,111.5,41.1Z" transform="translate(0 -8.9)"/><path class="cls-2" d="M154.9,28.5a2.16,2.16,0,0,1-1.4.6l.8-.8a1.18,1.18,0,0,0-1.2.3c-.3.3-1.2,1-2.2,1.9l1,.2a80.81,80.81,0,0,1-19,12.1l-.5,2.9c-1-.5-1.8,0-2.9,0-3.2,0-4.3-3.6-5.5-5.1a6.47,6.47,0,0,0,.4-2l1.3-.6c.7-.4,1.3-.7,1.6-1.6.8-2,1.2-3.7,1.9-6l-.2-.8c.7-2.4,2.4-4.2,2.5-6.3.1-1.5-1.9-2.4-1.9-3.8s2.6-2.1,4-2.8l.5.4c2.5-2.7,2.6-8.2,5.5-8.2.5,0,2.4,3.1,2.6,3.8s-.3,1.9-.5,3c1.8,0,3.8-.5,6.5-.2-.5,1,1.1.7,1.4,0,.5.4,2,.3,3.2.6,4.9,1.5,5.1,5.6,5.4,7.8A19.24,19.24,0,0,1,154.9,28.5ZM133,41.3l-.1.5,1.5-.8.3-.6Zm4.7-17.2-.1,1.6c-.2.3-.6.4-1,.8v.1c.8-.7.7,1.7.3,1.7a4.88,4.88,0,0,1-.7-.3h0a3.58,3.58,0,0,1,.4,1.1c-.1,1.2-1.1,2.7-1.4,4.7,1.9-1.2,6.2-2.9,8.8-5.1.2.2.4.2.8.3l-.3-.7.5-.3c.2.4.4.4.5.4.5,0,1.5-.8,3.4-3,1.4.5,4.1-3.1,3.8-5C143.9,20.4,140.6,23.2,137.7,24.1Zm-2.4,16.6,2.7-1.3a.62.62,0,0,1-.1-.9v-.1a9.56,9.56,0,0,0-2.6,2.3Zm12.8-7.9a5.47,5.47,0,0,0-2.9,1.2c-1.2.7-3,1.8-4.7,2.9a1.33,1.33,0,0,1-.6.9c-.4-.4-1-.2-1.5.3a3.37,3.37,0,0,1,1.2.4c3.1-1.9,6.1-4.1,8.5-5.7Zm1.5-1.6-1.7,1a.9.9,0,0,0,1.1,0l1.1-.8Zm4.9-4.1-.4.5.7.2.4-.5Z" transform="translate(0 -8.9)"/><path class="cls-2" d="M181.5,34.1c-.4.9-.3,3.2-1.4,4.3.7.4.3,1.7-.4,2.4.3.8.5,1.4-.6,2.9-.1.2.5-.1.6-.2a15.29,15.29,0,0,1-1.1,4.8c-1.6,0-3.1-1.6-4-1.3.1-1.1-.1-1.5-.8-1.5l.1-.7a.47.47,0,0,0,.5-.5.47.47,0,0,1-.5-.5,30.29,30.29,0,0,1,1.1-4.3c.4,0,.4.7.3,1.5.4,0,1-2.2,1.1-3.4l-.6-.3c-.1.8-.1,2-.7,1.7.2-.7.3-2.6.5-3.2l.9,1.1c-.1-.6.2-.8.1-1.6-3-.1-11,4.2-13.4,5.8l-.3.7.2.6a40.63,40.63,0,0,1-2.5,5.1l-3.3-1.4c-.2-1.6-2.4-2.3-1.9-3.7h-.8c1.2-8,10-16.6,15-23.3a44,44,0,0,1,7-7.2c.4-.3,1.9.2,2-.8a9.35,9.35,0,0,1,3,1.5l-1,.3c-.1.9,1.3-.1,1.5.1,2,1.7.8,4.6,1.9,6.1.1.3-.1,4.8-.8,5.3.1.1.2.1.3.2a24.12,24.12,0,0,0-.8,4.2c-.1.6,2,2.4,1.8,4.8C183.4,33.8,182.4,34,181.5,34.1Zm-16.8,4.2a5.3,5.3,0,0,0-.6,1l4-2.1C167.5,36.6,165.7,37.8,164.7,38.3Zm2.3-2.2c-.4.2-.7.2-1.1.4l-.6.9C165.5,37.3,166.7,36.8,167,36.1ZM179.9,18c-1,.1-3.4,3-5.7,6l-.3-.3c.2-.4.3-.7.1-1-.8,1-1.2,1.4-.7,2.4-.8,1.1-1.5,2-2.2,2.9-1,1.2-2.4,3.5-3.6,5.2,1.1-.6,1.9-1.7,4-2.7a30.56,30.56,0,0,1,4.9-1.5,17.4,17.4,0,0,1,.9-3.1l.9.8c.6-1.6,1.4-5.9,2-8.3Zm-9.2,17.9h0c-1.2,0-1.6.1-1.9,1C169.3,36.6,170.1,36.3,170.7,35.9Zm4.6,5.3-.2.7h.3l.2-.8ZM177,28.5c-.2.6.2.6.5.6l.1-.6Zm.4-.9-.2-.1-.2.6h.5Zm1.6-6.5h-.5l.4-1.4.5-.2Z" transform="translate(0 -8.9)"/><path class="cls-2" d="M227.4,39c.2.1.6.4.6.7a80.33,80.33,0,0,0-10.8,1c-1.1.2-.8,1-1.6,1.6-.2-.3-.9-.4-1.4-.3l-.1.6c-2,.2-1.9.2-3.9.5-1.7-2.2-4.4-.5-6.1.7a34.21,34.21,0,0,1-4.6-.4v.7l-9.2-1.2c-1.7-2.3-3.3-3.8-3.3-5.6,0-4.9,13.8-10.7,20.9-16.7-2.8-.7-7.1,1.4-8.9-.3a.75.75,0,0,0-.4.7,9.66,9.66,0,0,1-2.4.1c-.8-.1-3.2-3.7-3.1-4.4s.9-.6.5-1.7c5.3-2.1,13.1-2.5,17.3-2.5a27.59,27.59,0,0,1,6.8.8,15.56,15.56,0,0,1,.6,4.7l.6.6v.8h-.8c-.8,3-4.6,4.1-6.6,7.2l-.4-.6c-1.6,1.6-6.4,3.8-9.5,5.9l-.5,1a5.83,5.83,0,0,0-3.4,1.3V35l-.6.5-.4-.4a6.42,6.42,0,0,0-1,1.3c2.9.2,6,.1,9.1,0l.4.5.3-.5c.6,0,1.3-.1,2-.1,1.7.6,2.6,1,2.5-.1,3.8-.7,6.7-.4,10.5-.6a1.31,1.31,0,0,1-.6,1.2c-1.3.1-1.8.1-2.9.2-1.3.1-5.2.6-6,1.2l.1.3c4.1-.4,10.6-1.2,14.3-1.2.4,0,.6.1.5.2a2,2,0,0,0-1.2,1.2Zm-19.3,4.7c-1.1.1-1.7.2-2.5.2a1.61,1.61,0,0,1,2.5-.2Zm.1-24.3-.5.2.7,1.1.4-.4Zm19,21.7a95.46,95.46,0,0,0-10,.8c.4-1.3,9.3-1.7,10.2-1.3C227.7,40.7,227.5,41.1,227.2,41.1Zm-5.1-4.2c-.8-.5-.8-.8-.8-1a29.76,29.76,0,0,1,4.3.1c.5.1.5.5.4.8C224.8,36.8,223.4,36.9,222.1,36.9Zm4.6-.1c.1-.4.2-.7.5-.7.6-.1.9.3,1.2.5.1.1-.2.2-.6.2Zm2.1,2.8a1,1,0,0,1-.4-.7l1.5-.1c.6.1,1.7.1,1.7.4,0,.1-.2.2-.5.2Z" transform="translate(0 -8.9)"/><path class="cls-2" d="M249,19.2c-4.8,2.2-9.8,2.3-14.4,3.7-.6,1-1.3,2.2-2.2,3.6,2.1-.2,6.5-2,8.1-2s2,.5,3.1,2.4a1.16,1.16,0,0,0,.6,1.4l-.4,1.2c-3.2.5-11.1,1.8-13.8,3-1.4.6-2.6,6.4-2.6,7.6,1.6,1.2,4.1.7,5.7.3l.3.5c.4,0,.8-.3.8-.6.8-.1,1.1,1.2,1.8,1,3.4-1,7.5-2.3,10.2-3.2.2-.1.4-.1.4.1s-.7.6-1.1.8l-3.6,1.3a14.8,14.8,0,0,0,1.3.8c.2.1.1.2-.1.2-2.7.9-5.9,1.8-8.9,2.5a4.38,4.38,0,0,0,3,.1c2.1-.6,5-1.6,7.6-2.5.2-.1.5-.2.3.3a2.69,2.69,0,0,1-1.5,1.2c-3.4,1.3-7.9,2.9-11.1,2.9-6.2,0-10.6-2.8-10.4-10.5.1-3.9,3.3-8.7,7.2-16.9a4.92,4.92,0,0,1,.7-4c2.7.3,4.2-3.8,6-3.8a27.21,27.21,0,0,1,4.5,1,6.4,6.4,0,0,1-1,3.8,30.84,30.84,0,0,0,4.6.5l.5,1a8.57,8.57,0,0,1,1.3-.3c.6,0,1.9.5,2.6.6.1,0,.2.1.1.2-2.1,1.9-3.6.7-3.2,2.3,1.6-.6,2.9-1,4.4-1.7.2-.1.5-.5.6-.2C250.5,18.5,249.6,18.8,249,19.2ZM226.6,37.7c-.2,1-.3,1.6.2,2l.3-1.4Zm.9-3-.6,2,.4.5.7-2.5Zm.1-.4h0a3.59,3.59,0,0,0,1-1.4c-.7-.1-.9.3-1,.8Zm3-7.6.7-.1.5-1.2C231.4,25.3,230.8,26.1,230.6,26.7Zm2.4-3.6-.9,1.5.7-.2.9-1.5ZM239.9,39c-1.5,1.1-3.3,1.9-4,.8a38.9,38.9,0,0,0,6.8-2.1c.2-.1.3.1.2.2A3.65,3.65,0,0,1,239.9,39Zm5-21.4.2.6,1-.4C246,17.5,245.2,17.5,244.9,17.6Z" transform="translate(0 -8.9)"/></g></svg>